<svg xmlns="http://www.w3.org/2000/svg" viewBox="0 0 64 64" width="200" height="200" aria-labelledby="primemarLogoTitle primemarLogoDesc" role="img">
  <title id="primemarLogoTitle">PrimeMar bird logo</title>
  <desc id="primemarLogoDesc">Stylized bird silhouette in flight representing PrimeMar</desc>
  <defs>
    <linearGradient id="pmGrad" x1="0%" y1="0%" x2="100%" y2="100%">
      <stop offset="0%" stop-color="#4f46e5" />
      <stop offset="100%" stop-color="#8b5cf6" />
    </linearGradient>
  </defs>
  <!-- A sleek, single-path bird silhouette inspired by friendly flight shapes -->
  <path d="M2 32c6-4 11-8 18-9 4-1 7-1 11 1 3 1 6 3 9 6 2 2 5 3 9 3-1 4-3 7-6 9-4 3-9 4-14 3-6-1-10-4-15-6-4-2-7-4-11-6z" fill="url(#pmGrad)" transform="translate(3 6) scale(0.9)"/>
  <path d="M40 12c-2 1-5 3-7 5 5-1 9 0 13 2 3 1 5 3 6 5-1 0-3-1-5-1-3 0-6 1-9 2 4 2 8 4 11 7 3 2 6 4 8 6 1-3 1-6 0-9-2-6-8-11-17-17z" fill="#ffffff" opacity="0.06"/>
  <!-- a subtle outline for small sizes -->
  <path d="M5 34c6-3 11-7 18-8 4-1 7-1 11 1 3 1 6 3 9 6" fill="none" stroke="#2d2a8f" stroke-opacity="0.12" stroke-width="0.8" stroke-linecap="round" stroke-linejoin="round"/>
</svg>
